<svg width="154" height="44" viewBox="0 0 154 44" fill="none" xmlns="http://www.w3.org/2000/svg">
<path d="M42.84 8.56717C45.84 8.56717 48.2643 9.5074 50.1128 11.3879C51.9613 13.2385 52.8855 15.8353 52.8855 19.1784V32.8251C52.8855 33.3246 52.4744 33.7296 51.9673 33.7296H47.4401C46.933 33.7296 46.5219 33.3246 46.5219 32.8251V20.0291C46.5219 18.059 46.0219 16.5517 45.0219 15.507C44.0218 14.4324 42.6582 13.8952 40.9309 13.8952C39.1733 13.8952 37.7794 14.4324 36.7491 15.507C35.7491 16.5517 35.2491 18.059 35.2491 20.0291V32.8251C35.2491 33.3246 34.8379 33.7296 34.3308 33.7296H29.8037C29.2965 33.7296 28.8854 33.3246 28.8854 32.8251V9.82986C28.8854 9.33031 29.2965 8.92535 29.8037 8.92535H34.3308C34.8379 8.92535 35.2491 9.33031 35.2491 9.82986V12.0147C36.0975 10.9401 37.1733 10.1044 38.4764 9.5074C39.8097 8.88058 41.2642 8.56717 42.84 8.56717Z" fill="#4F697C"/>
<path fill-rule="evenodd" clip-rule="evenodd" d="M6.66359 32.5747C8.66564 33.681 10.863 34.2341 13.2557 34.2341C15.6484 34.2341 17.8458 33.681 19.8478 32.5747C21.8499 31.4684 23.4247 29.9413 24.5722 27.9934C25.7441 26.0213 26.3301 23.7968 26.3301 21.3198C26.3301 18.8667 25.7441 16.6663 24.5722 14.7183C23.4247 12.7463 21.8499 11.2071 19.8478 10.1009C17.8702 8.99462 15.6728 8.44149 13.2557 8.44149C10.863 8.44149 8.66564 8.99462 6.66359 10.1009C4.66154 11.2071 3.07455 12.7463 1.90261 14.7183C0.730681 16.6663 0.144714 18.8667 0.144714 21.3198C0.144714 23.7968 0.730681 26.0213 1.90261 27.9934C3.07455 29.9413 4.66154 31.4684 6.66359 32.5747ZM9.71617 27.357C10.7886 27.9495 11.9656 28.2458 13.2473 28.2458C14.5289 28.2458 15.706 27.9495 16.7784 27.357C17.8508 26.7644 18.6943 25.9464 19.309 24.9029C19.9368 23.8466 20.2506 22.655 20.2506 21.3282C20.2506 20.0142 19.9368 18.8355 19.309 17.7921C18.6943 16.7358 17.8508 15.9113 16.7784 15.3187C15.719 14.7262 14.542 14.4299 13.2473 14.4299C11.9656 14.4299 10.7886 14.7262 9.71617 15.3187C8.64376 15.9113 7.79368 16.7358 7.16593 17.7921C6.53818 18.8355 6.2243 20.0142 6.2243 21.3282C6.2243 22.655 6.53818 23.8466 7.16593 24.9029C7.79368 25.9464 8.64376 26.7644 9.71617 27.357Z" fill="#4F697C"/>
<path d="M63.3818 0.597639C63.889 0.597639 64.3001 1.0026 64.3001 1.50214V32.8252C64.3001 33.3247 63.889 33.7297 63.3818 33.7297H58.8547C58.3475 33.7297 57.9364 33.3247 57.9364 32.8252V1.50214C57.9364 1.0026 58.3475 0.597639 58.8547 0.597639H63.3818Z" fill="#0CA9CC"/>
<path fill-rule="evenodd" clip-rule="evenodd" d="M117.803 21.2334C117.803 17.4807 114.714 14.4386 110.904 14.4386C108.862 14.4386 107.638 14.8728 105.988 16.0761C104.648 17.0538 103.213 18.3946 101.127 20.3424L101.127 20.3426C100.181 21.2256 99.1021 22.2333 97.8378 23.3886C97.8026 23.4207 97.7668 23.4519 97.7304 23.4821C96.7219 24.4048 95.7898 25.2751 94.9208 26.0867L94.9203 26.0871L94.9203 26.0871C92.6568 28.2007 90.8207 29.9153 89.1736 31.1167C86.5749 33.0124 84.1214 33.9088 80.7055 33.9088C73.5992 33.9088 67.8384 28.2344 67.8384 21.2347C67.8384 14.235 73.5992 8.5606 80.7055 8.5606C85.5656 8.5606 88.5784 10.8362 91.0522 13.0774C92.2654 14.1765 92.3443 16.0361 91.2285 17.2311C90.1126 18.426 88.2247 18.5037 87.0115 17.4046C84.7245 15.3326 83.171 14.4399 80.7055 14.4399C76.8957 14.4399 73.8072 17.482 73.8072 21.2347C73.8072 24.9874 76.8957 28.0296 80.7055 28.0296C82.7477 28.0296 83.9718 27.5953 85.6214 26.392C86.9616 25.4144 88.3973 24.0736 90.4829 22.1257L90.483 22.1257C91.4285 21.2427 92.5076 20.2348 93.772 19.0796C93.8072 19.0474 93.843 19.0162 93.8793 18.986C94.8878 18.0634 95.8199 17.193 96.689 16.3815L96.6894 16.3811L96.6895 16.381C98.953 14.2674 100.789 12.5528 102.436 11.3514C105.035 9.45572 107.488 8.55927 110.904 8.55927C118.011 8.55927 123.771 14.2337 123.771 21.2334C123.771 28.2331 118.011 33.9075 110.904 33.9075C105.992 33.9075 102.956 31.5737 100.474 29.3149C99.2635 28.2132 99.1888 26.3534 100.307 25.1609C101.426 23.9684 103.314 23.8949 104.525 24.9966C106.843 27.1066 108.41 28.0282 110.904 28.0282C114.714 28.0282 117.803 24.9861 117.803 21.2334Z" fill="#0CA9CC"/>
<path d="M133.087 12.2451C133.738 11.4063 135.027 10.4331 136.451 9.68686C137.906 8.9108 139.557 8.52276 141.406 8.52276C143.557 8.52276 145.496 9.04512 147.224 10.0898C148.981 11.1345 150.36 12.627 151.36 14.5671C152.39 16.4774 152.906 18.7012 152.906 21.2383C152.906 23.7754 152.39 26.029 151.36 27.999C150.36 29.9392 148.981 31.4466 147.224 32.5211C145.496 33.5957 143.557 34.1329 141.406 34.1329C139.557 34.1329 137.921 33.7598 136.496 33.0136C135.102 32.2674 133.966 31.3272 133.087 30.1929V42.3843C133.087 42.8838 132.676 43.2888 132.169 43.2888H127.642C127.135 43.2888 126.724 42.8838 126.724 42.3843V10.2825C126.724 9.78294 127.135 9.37797 127.642 9.37797H132.169C132.676 9.37797 133.087 9.78294 133.087 10.2825V12.2451ZM146.406 21.2383C146.406 19.7459 146.087 18.4624 145.451 17.3878C144.845 16.2834 144.027 15.4477 142.996 14.8805C141.996 14.3134 140.906 14.0298 139.724 14.0298C138.572 14.0298 137.481 14.3283 136.451 14.9253C135.451 15.4924 134.633 16.3282 133.996 17.4326C133.39 18.537 133.087 19.8354 133.087 21.3278C133.087 22.8203 133.39 24.1187 133.996 25.2231C134.633 26.3275 135.451 27.1782 136.451 27.7752C137.481 28.3423 138.572 28.6258 139.724 28.6258C140.906 28.6258 141.996 28.3274 142.996 27.7304C144.027 27.1334 144.845 26.2827 145.451 25.1783C146.087 24.0739 146.406 22.7606 146.406 21.2383Z" fill="#0CA9CC"/>
</svg>
